<?xml version="1.0" encoding="utf-8"?>
<svg xml:space="preserve" viewBox="0 0 100 100" y="0" x="0" xmlns="http://www.w3.org/2000/svg" id="圖層_1" version="1.1" style="height: 100%; width: 100%; background: rgb(255, 255, 255); shape-rendering: auto;" width="103px" height="103px"><g class="ldl-scale" style="transform-origin: 50% 50%; transform: rotate(0deg) scale(0.56, 0.56);"><g class="ldl-ani" style="transform-origin: 50px 49.9995px;"><g class="ldl-layer"><g class="ldl-ani" style="transform-origin: 44.0055px 28.4385px; transform: matrix(1, 0, 0, 1, 0, 0); animation: 1.1236s linear -0.655431s infinite normal forwards running bounce-1661bf28-b2c2-4e5b-90a1-8b000afb00f1;"><g><g class="ldl-layer"><g class="ldl-ani" style="transform-origin: 44.0055px 28.4395px;"><path fill="#f8b26a" d="M44.005 11.841c-9.152 0-16.598 7.446-16.598 16.598s7.446 16.599 16.598 16.599 16.599-7.446 16.599-16.599c-.001-9.152-7.447-16.598-16.599-16.598z" style="fill: rgb(248, 178, 106);"></path></g></g><g class="ldl-layer"><g class="ldl-ani" style="transform-origin: 44.0055px 28.4385px;"><path fill="#f5e6c8" d="M44.005 8.532c-10.977 0-19.906 8.93-19.906 19.906s8.93 19.907 19.906 19.907c10.977 0 19.907-8.931 19.907-19.907S54.981 8.532 44.005 8.532zm0 36.505c-9.152 0-16.598-7.446-16.598-16.599 0-9.152 7.446-16.598 16.598-16.598s16.599 7.446 16.599 16.598c-.001 9.153-7.447 16.599-16.599 16.599z" style="fill: rgb(245, 230, 200);"></path></g></g><g class="ldl-layer"><g class="ldl-ani" style="transform-origin: 44.089px 28.439px;"><path fill="#f5e6c8" d="M45.594 26.565c-2.413-.908-3.406-1.504-3.406-2.44 0-.795.596-1.59 2.441-1.59 1.013 0 1.845.161 2.516.36.88.262 1.799-.283 2.027-1.173a1.649 1.649 0 0 0-1.193-2.001c-.703-.185-1.54-.319-2.556-.365V18.25a1.391 1.391 0 0 0-2.782 0v1.305c-3.037.596-4.797 2.554-4.797 5.052 0 2.753 2.072 4.172 5.109 5.194 2.101.71 3.008 1.391 3.008 2.469 0 1.136-1.107 1.76-2.724 1.76a9.576 9.576 0 0 1-3.07-.527c-.901-.307-1.876.189-2.112 1.111l-.034.133a1.638 1.638 0 0 0 1.069 1.966c.987.324 2.186.555 3.409.609v1.306c0 .768.623 1.391 1.391 1.391h.001c.768 0 1.391-.623 1.391-1.391v-1.505c3.263-.568 5.052-2.724 5.052-5.251.001-2.553-1.362-4.114-4.74-5.307z" style="fill: rgb(245, 230, 200);"></path></g></g></g></g></g><g class="ldl-layer"><g class="ldl-ani" style="transform-origin: 72.5935px 35.7395px; transform: matrix(1, 0, 0, 1, 0, 0); animation: 1.1236s linear -0.749064s infinite normal forwards running bounce-1661bf28-b2c2-4e5b-90a1-8b000afb00f1;"><g><g class="ldl-layer"><g class="ldl-ani" style="transform-origin: 72.5935px 35.7395px;"><path fill="#f8b26a" d="M72.593 19.141c-9.152 0-16.598 7.446-16.598 16.598s7.446 16.599 16.598 16.599 16.599-7.446 16.599-16.599c-.001-9.152-7.447-16.598-16.599-16.598z" style="fill: rgb(248, 178, 106);"></path></g></g><g class="ldl-layer"><g class="ldl-ani" style="transform-origin: 72.5935px 35.7395px;"><path fill="#f5e6c8" d="M72.593 15.833c-10.977 0-19.906 8.93-19.906 19.906s8.93 19.907 19.906 19.907c10.977 0 19.907-8.931 19.907-19.907s-8.931-19.906-19.907-19.906zm0 36.505c-9.152 0-16.598-7.446-16.598-16.599 0-9.152 7.446-16.598 16.598-16.598s16.599 7.446 16.599 16.598c-.001 9.152-7.447 16.599-16.599 16.599z" style="fill: rgb(245, 230, 200);"></path></g></g><g class="ldl-layer"><g class="ldl-ani" style="transform-origin: 72.677px 35.739px;"><path fill="#f5e6c8" d="M74.182 33.865c-2.412-.908-3.406-1.504-3.406-2.44 0-.795.596-1.59 2.441-1.59 1.013 0 1.845.161 2.516.36.88.262 1.799-.283 2.027-1.173a1.649 1.649 0 0 0-1.193-2.001c-.703-.185-1.54-.319-2.556-.365V25.55a1.391 1.391 0 0 0-2.782 0v1.305c-3.037.596-4.797 2.554-4.797 5.052 0 2.753 2.072 4.172 5.109 5.194 2.101.71 3.008 1.391 3.008 2.469 0 1.136-1.107 1.76-2.724 1.76a9.576 9.576 0 0 1-3.07-.527c-.901-.307-1.876.189-2.112 1.111l-.034.133a1.638 1.638 0 0 0 1.069 1.966c.987.324 2.186.555 3.409.609v1.306c0 .768.623 1.391 1.391 1.391h.001c.768 0 1.391-.623 1.391-1.391v-1.505c3.263-.568 5.052-2.724 5.052-5.251.001-2.553-1.362-4.114-4.74-5.307z" style="fill: rgb(245, 230, 200);"></path></g></g></g></g></g><g class="ldl-layer"><g class="ldl-ani" style="transform-origin: 55.9955px 47.7525px; transform: matrix(1, 0, 0, 1, 0, 0); animation: 1.1236s linear -0.842697s infinite normal forwards running bounce-1661bf28-b2c2-4e5b-90a1-8b000afb00f1;"><g><g class="ldl-layer"><g class="ldl-ani" style="transform-origin: 55.9955px 47.7525px;"><path fill="#f8b26a" d="M55.995 31.154c-9.152 0-16.598 7.446-16.598 16.598s7.446 16.599 16.598 16.599 16.599-7.446 16.599-16.599c-.001-9.152-7.447-16.598-16.599-16.598z" style="fill: rgb(248, 178, 106);"></path></g></g><g class="ldl-layer"><g class="ldl-ani" style="transform-origin: 55.9955px 47.7525px;"><path fill="#f5e6c8" d="M55.995 27.846c-10.977 0-19.906 8.93-19.906 19.906s8.93 19.907 19.906 19.907c10.977 0 19.907-8.931 19.907-19.907s-8.931-19.906-19.907-19.906zm0 36.505c-9.152 0-16.598-7.446-16.598-16.599 0-9.152 7.446-16.598 16.598-16.598S72.594 38.6 72.594 47.752c-.001 9.153-7.447 16.599-16.599 16.599z" style="fill: rgb(245, 230, 200);"></path></g></g><g class="ldl-layer"><g class="ldl-ani" style="transform-origin: 56.079px 47.752px;"><path fill="#f5e6c8" d="M57.584 45.879c-2.413-.908-3.406-1.504-3.406-2.44 0-.795.596-1.59 2.441-1.59 1.013 0 1.845.161 2.516.36.88.262 1.799-.283 2.027-1.173a1.649 1.649 0 0 0-1.193-2.001c-.703-.185-1.54-.319-2.556-.365v-1.107a1.391 1.391 0 0 0-2.782 0v1.305c-3.037.596-4.797 2.554-4.797 5.052 0 2.753 2.072 4.172 5.109 5.194 2.101.71 3.008 1.391 3.008 2.469 0 1.136-1.107 1.76-2.724 1.76a9.576 9.576 0 0 1-3.07-.527c-.901-.307-1.876.189-2.112 1.111l-.034.133a1.638 1.638 0 0 0 1.069 1.966c.987.324 2.186.555 3.409.609v1.306c0 .768.623 1.391 1.391 1.391h.001c.768 0 1.391-.623 1.391-1.391v-1.505c3.263-.568 5.052-2.724 5.052-5.251.001-2.553-1.362-4.114-4.74-5.306z" style="fill: rgb(245, 230, 200);"></path></g></g></g></g></g><g class="ldl-layer"><g class="ldl-ani" style="transform-origin: 27.4065px 45.0375px; transform: matrix(1, 0, 0, 1, 0, 0); animation: 1.1236s linear -0.93633s infinite normal forwards running bounce-1661bf28-b2c2-4e5b-90a1-8b000afb00f1;"><g><g class="ldl-layer"><g class="ldl-ani" style="transform-origin: 27.4065px 45.0375px;"><path fill="#f8b26a" d="M27.406 28.439c-9.152 0-16.598 7.446-16.598 16.598s7.446 16.599 16.598 16.599 16.599-7.446 16.599-16.599c0-9.152-7.446-16.598-16.599-16.598z" style="fill: rgb(248, 178, 106);"></path></g></g><g class="ldl-layer"><g class="ldl-ani" style="transform-origin: 27.4065px 45.0375px;"><path fill="#f5e6c8" d="M27.406 25.131C16.43 25.131 7.5 34.061 7.5 45.037s8.93 19.907 19.906 19.907c10.977 0 19.907-8.931 19.907-19.907s-8.93-19.906-19.907-19.906zm0 36.505c-9.152 0-16.598-7.446-16.598-16.599 0-9.152 7.446-16.598 16.598-16.598s16.599 7.446 16.599 16.598-7.446 16.599-16.599 16.599z" style="fill: rgb(245, 230, 200);"></path></g></g><g class="ldl-layer"><g class="ldl-ani" style="transform-origin: 27.491px 45.036px;"><path fill="#f5e6c8" d="M28.996 43.163c-2.413-.908-3.406-1.504-3.406-2.44 0-.795.596-1.59 2.441-1.59 1.013 0 1.845.161 2.516.36.88.262 1.799-.283 2.027-1.173a1.649 1.649 0 0 0-1.193-2.001c-.703-.185-1.54-.319-2.556-.365v-1.107a1.391 1.391 0 0 0-2.782 0v1.305c-3.037.596-4.797 2.554-4.797 5.052 0 2.753 2.072 4.172 5.109 5.194 2.101.71 3.008 1.391 3.008 2.469 0 1.136-1.107 1.76-2.724 1.76a9.576 9.576 0 0 1-3.07-.527c-.901-.307-1.876.189-2.112 1.111l-.034.133a1.638 1.638 0 0 0 1.069 1.966c.987.324 2.186.555 3.409.609v1.306c0 .768.623 1.391 1.391 1.391h.001c.768 0 1.391-.623 1.391-1.391V53.72c3.263-.568 5.052-2.724 5.052-5.251 0-2.552-1.363-4.113-4.74-5.306z" style="fill: rgb(245, 230, 200);"></path></g></g></g></g></g><g class="ldl-layer"><g class="ldl-ani" style="transform-origin: 36.0885px 71.5605px; transform: matrix(1, 0, 0, 1, 0, 0); animation: 1.1236s linear -1.02996s infinite normal forwards running bounce-1661bf28-b2c2-4e5b-90a1-8b000afb00f1;"><g><g class="ldl-layer"><g class="ldl-ani" style="transform-origin: 36.0885px 71.5615px;"><path fill="#f8b26a" d="M36.088 54.963c-9.152 0-16.598 7.446-16.598 16.598S26.936 88.16 36.088 88.16s16.599-7.446 16.599-16.599c-.001-9.153-7.447-16.598-16.599-16.598z" style="fill: rgb(248, 178, 106);"></path></g></g><g class="ldl-layer"><g class="ldl-ani" style="transform-origin: 36.0885px 71.5605px;"><path fill="#f5e6c8" d="M36.088 51.654c-10.976 0-19.906 8.93-19.906 19.906s8.93 19.907 19.906 19.907c10.977 0 19.907-8.931 19.907-19.907s-8.931-19.906-19.907-19.906zm0 36.505c-9.152 0-16.598-7.446-16.598-16.599 0-9.152 7.446-16.598 16.598-16.598s16.599 7.446 16.599 16.598c-.001 9.153-7.447 16.599-16.599 16.599z" style="fill: rgb(245, 230, 200);"></path></g></g><g class="ldl-layer"><g class="ldl-ani" style="transform-origin: 36.172px 71.56px;"><path fill="#f5e6c8" d="M37.677 69.687c-2.413-.908-3.406-1.504-3.406-2.44 0-.795.596-1.59 2.441-1.59 1.013 0 1.845.161 2.516.36.88.262 1.799-.283 2.027-1.173a1.649 1.649 0 0 0-1.193-2.001c-.703-.185-1.54-.319-2.556-.365v-1.107a1.391 1.391 0 0 0-2.782 0v1.305c-3.037.596-4.797 2.554-4.797 5.052 0 2.753 2.072 4.172 5.109 5.194 2.101.71 3.008 1.391 3.008 2.469 0 1.136-1.107 1.76-2.724 1.76a9.576 9.576 0 0 1-3.07-.527c-.901-.307-1.876.189-2.112 1.111l-.034.133a1.638 1.638 0 0 0 1.069 1.966c.987.324 2.186.555 3.409.609v1.306c0 .768.623 1.391 1.391 1.391h.001c.768 0 1.391-.623 1.391-1.391v-1.505c3.263-.568 5.052-2.724 5.052-5.251.001-2.553-1.362-4.114-4.74-5.306z" style="fill: rgb(245, 230, 200);"></path></g></g></g></g></g><g class="ldl-layer"><g class="ldl-ani" style="transform-origin: 62.3245px 68.8205px; transform: matrix(1, 0, 0, 1, 0, 0); animation: 1.1236s linear -1.1236s infinite normal forwards running bounce-1661bf28-b2c2-4e5b-90a1-8b000afb00f1;"><g><g class="ldl-layer"><g class="ldl-ani" style="transform-origin: 62.3245px 68.8215px;"><path fill="#f8b26a" d="M62.324 52.223c-9.152 0-16.598 7.446-16.598 16.598S53.172 85.42 62.324 85.42s16.599-7.446 16.599-16.599-7.447-16.598-16.599-16.598z" style="fill: rgb(248, 178, 106);"></path></g></g><g class="ldl-layer"><g class="ldl-ani" style="transform-origin: 62.3245px 68.8205px;"><path fill="#f5e6c8" d="M62.324 48.914c-10.977 0-19.906 8.93-19.906 19.906s8.93 19.907 19.906 19.907c10.977 0 19.907-8.931 19.907-19.907s-8.93-19.906-19.907-19.906zm0 36.505c-9.152 0-16.598-7.446-16.598-16.599 0-9.152 7.446-16.598 16.598-16.598s16.599 7.446 16.599 16.598c0 9.153-7.447 16.599-16.599 16.599z" style="fill: rgb(245, 230, 200);"></path></g></g><g class="ldl-layer"><g class="ldl-ani" style="transform-origin: 62.409px 68.82px;"><path fill="#f5e6c8" d="M63.914 66.947c-2.413-.908-3.406-1.504-3.406-2.44 0-.795.596-1.59 2.441-1.59 1.013 0 1.845.161 2.516.36.88.262 1.799-.283 2.027-1.173a1.649 1.649 0 0 0-1.193-2.001c-.703-.185-1.54-.319-2.556-.365v-1.107a1.391 1.391 0 0 0-2.782 0v1.305c-3.037.596-4.797 2.554-4.797 5.052 0 2.753 2.072 4.172 5.109 5.194 2.101.71 3.008 1.391 3.008 2.469 0 1.136-1.107 1.76-2.724 1.76a9.576 9.576 0 0 1-3.07-.527c-.901-.307-1.876.189-2.112 1.111l-.034.133a1.638 1.638 0 0 0 1.069 1.966c.987.324 2.186.555 3.409.609v1.306c0 .768.623 1.391 1.391 1.391h.001c.768 0 1.391-.623 1.391-1.391v-1.505c3.263-.568 5.052-2.724 5.052-5.251 0-2.553-1.363-4.113-4.74-5.306z" style="fill: rgb(245, 230, 200);"></path></g></g></g></g></g><metadata xmlns:d="https://loading.io/stock/"><d:name>coin</d:name><d:tags>coin,dollar,money,bucks,currency,price,value</d:tags><d:license>by</d:license><d:slug>399d8z</d:slug></metadata></g></g><style id="bounce-1661bf28-b2c2-4e5b-90a1-8b000afb00f1" data-anikit="">@keyframes bounce-1661bf28-b2c2-4e5b-90a1-8b000afb00f1
{
  0% {
    animation-timing-function: cubic-bezier(0.1361,0.2514,0.2175,0.8786);
    transform: translate(0,0px) scaleY(1);
  }
  37% {
    animation-timing-function: cubic-bezier(0.7674,0.1844,0.8382,0.7157);
    transform: translate(0,-39.96px) scaleY(1);
  }
  72% {
    animation-timing-function: cubic-bezier(0.1118,0.2149,0.2172,0.941);
    transform: translate(0,0px) scaleY(1);
  }
  87% {
    animation-timing-function: cubic-bezier(0.7494,0.2259,0.8209,0.6963);
    transform: translate(0,19.900000000000002px) scaleY(0.602);
  }
  100% {
    transform: translate(0,0px) scaleY(1);
  }
}</style><!-- [ldio] generated by https://loading.io/ --></svg>